<!-- Generated by IcoMoon.io -->
<svg version="1.1" xmlns="http://www.w3.org/2000/svg" width="64" height="32" viewBox="0 0 64 32">
<title>devto</title>
<path d="M25.12 13.067c-0.267-0.213-0.693-0.32-1.28-0.427h-0.853l0.107 7.36h0.853c0.587 0 0.907-0.107 1.227-0.373 0.373-0.373 0.373-0.533 0.373-3.307 0-2.827 0-2.933-0.427-3.253z"></path>
<path d="M49.867 5.28c-0.107-0.267-0.267-0.48-0.48-0.693s-0.427-0.373-0.693-0.48-0.533-0.16-0.8-0.16h-31.84c-0.267 0-0.533 0.053-0.8 0.16s-0.48 0.267-0.693 0.48c-0.16 0.213-0.32 0.427-0.427 0.693s-0.16 0.533-0.16 0.8v19.84c0 0.267 0.053 0.533 0.16 0.747 0.107 0.267 0.267 0.48 0.48 0.693s0.427 0.373 0.693 0.48 0.533 0.16 0.8 0.16h31.787c0.267 0 0.533-0.053 0.8-0.16s0.48-0.267 0.693-0.48c0.213-0.213 0.373-0.427 0.48-0.693s0.16-0.533 0.16-0.8v-19.787c0-0.267-0.053-0.533-0.16-0.8zM26.773 20.907c-0.64 0.907-1.6 1.173-3.787 1.173h-1.973v-5.653h-0.053v-5.707h2.133c2.453 0 3.2 0.267 3.893 1.387 0.373 0.64 0.427 0.853 0.48 3.84 0.107 3.36 0 4.107-0.693 4.96zM34.507 12.693h-3.733v2.667h2.293v1.92l-2.24 0.107v2.667l3.627 0.107v1.92h-2.4c-2.293 0-2.4 0-2.827-0.427l-0.427-0.427v-4.747c0-4.533 0-4.747 0.373-5.227s0.373-0.48 2.827-0.48h2.507v1.92zM41.493 20.96c-0.213 0.64-0.96 1.173-1.493 1.173-0.267 0-0.693-0.213-1.013-0.587-0.48-0.48-0.64-0.96-1.227-3.147-0.373-1.44-0.96-3.733-1.333-5.12l-0.693-2.453h1.173c0.587 0 1.12 0 1.12 0.053s1.707 6.827 1.867 7.253c0.107 0.213 0.48-1.067 1.013-3.413l1.013-3.787 1.12-0.053c0.64-0.053 1.12 0 1.12 0.053 0 0.213-2.507 9.547-2.667 10.027z"></path>
</svg>
